<?xml version="1.0" standalone="no"?>
<!DOCTYPE svg PUBLIC "-//W3C//DTD SVG 1.1//EN" "http://www.w3.org/Graphics/SVG/1.1/DTD/svg11.dtd" >
<svg xmlns="http://www.w3.org/2000/svg">
<metadata>
Created by FontForge 20120731 at Thu Dec 15 14:38:16 2016
 By admin
</metadata>
<defs>
<font id="mwifont" horiz-adv-x="1024" >
  <font-face 
    font-family="mwifont"
    font-weight="500"
    font-stretch="normal"
    units-per-em="1024"
    panose-1="2 0 6 3 0 0 0 0 0 0"
    ascent="896"
    descent="-128"
    x-height="792"
    bbox="0 -212 1404 931"
    underline-thickness="0"
    underline-position="0"
    unicode-range="U+0078-E85E"
  />
<missing-glyph 
 />
    <glyph glyph-name=".notdef" 
 />
    <glyph glyph-name=".notdef" 
 />
    <glyph glyph-name=".null" horiz-adv-x="0" 
 />
    <glyph glyph-name="nonmarkingreturn" horiz-adv-x="341" 
 />
    <glyph glyph-name="x" unicode="x" horiz-adv-x="1001" 
d="M281 543q-27 -1 -53 -1h-83q-18 0 -36.5 -6t-32.5 -18.5t-23 -32t-9 -45.5v-76h912v41q0 16 -0.5 30t-0.5 18q0 13 -5 29t-17 29.5t-31.5 22.5t-49.5 9h-133v-97h-438v97zM955 310v-52q0 -23 0.5 -52t0.5 -58t-10.5 -47.5t-26 -30t-33 -16t-31.5 -4.5q-14 -1 -29.5 -0.5
t-29.5 0.5h-32l-45 128h-439l-44 -128h-29h-34q-20 0 -45 1q-25 0 -41 9.5t-25.5 23t-13.5 29.5t-4 30v167h911zM163 247q-12 0 -21 -8.5t-9 -21.5t9 -21.5t21 -8.5q13 0 22 8.5t9 21.5t-9 21.5t-22 8.5zM316 123q-8 -26 -14 -48q-5 -19 -10.5 -37t-7.5 -25t-3 -15t1 -14.5
t9.5 -10.5t21.5 -4h37h67h81h80h64h36q23 0 34 12t2 38q-5 13 -9.5 30.5t-9.5 34.5q-5 19 -11 39h-368zM336 498v228q0 11 2.5 23t10 21.5t20.5 15.5t34 6h188q31 0 51.5 -14.5t20.5 -52.5v-227h-327z" />
    <glyph glyph-name="weixin" unicode="&#xe62e;" horiz-adv-x="1000" 
d="M313 534q14 0 22.5 8.5t8.5 23t-8.5 23.5t-22.5 9q-15 0 -26.5 -9t-11.5 -23t11.5 -23t26.5 -9zM490 598q-15 0 -26.5 -9t-11.5 -23t11.5 -23t26.5 -9q14 0 23 8.5t9 23t-9 23.5t-23 9zM711 360q14 0 23 8t9 18t-9 18t-23 8q-9 0 -17 -8t-8 -18t8 -18t17 -8zM572 360
q14 0 23 8t9 18t-9 18t-23 8q-9 0 -17 -8t-8 -18t8 -18t17 -8zM1 399.5q0 -101.5 39.5 -194t106 -159.5t159 -106.5t194 -39.5t194 39.5t159 106.5t106 159.5t39.5 194t-39.5 193.5t-106 159t-159 106.5t-194 39.5t-194 -39.5t-159 -106.5t-106 -159t-39.5 -193.5zM626 528
q-90 0 -152.5 -59t-62.5 -144q0 -26 8 -53q-12 -1 -24 -1q-25 0 -89 12l-88 -45l25 78q-101 71 -101 173q0 91 74 154.5t179 63.5q93 0 166 -51.5t89 -128.5q-13 1 -24 1zM857 328q0 -80 -89 -147l19 -64l-69 38q-51 -13 -76 -13q-90 0 -152.5 54.5t-62.5 132t62.5 131.5
t152.5 54q86 0 150.5 -54.5t64.5 -131.5z" />
    <glyph glyph-name="radio" unicode="&#xe602;" 
d="M512.5 820q-88.5 0 -169.5 -34.5t-139.5 -93t-93 -139.5t-34.5 -169.5t34.5 -169.5t93 -139.5t139.5 -93t169.5 -34.5t169.5 34.5t139.5 93t93 139.5t34.5 169.5t-34.5 169.5t-93 139.5t-139.5 93t-169.5 34.5zM512.5 122q-108.5 0 -185.5 76.5t-77 185t77 185
t185.5 76.5t185 -76.5t76.5 -185t-76.5 -185t-185 -76.5zM512.5 515q-54.5 0 -93 -38.5t-38.5 -93t38.5 -92.5t93 -38t92.5 38t38 92.5t-38 93t-92.5 38.5z" />
    <glyph glyph-name="google-circle" unicode="&#xe618;" 
d="M499 548q-12 43 -32.5 60t-53.5 17q-6 0 -13 -1q-28 -9 -41 -44q-12 -35 -1 -75q9 -37 32.5 -61.5t49.5 -24.5q6 0 13 2q29 9 43.5 47t2.5 80zM439 275h-11q-48 -4 -80 -33t-29 -67q2 -37 36.5 -57.5t83.5 -16.5q47 3 75.5 28.5t26.5 62.5q-2 36 -30.5 59.5t-71.5 23.5z
M512 887q-102 0 -195.5 -40t-160.5 -107t-107 -160.5t-40 -195.5t40 -195.5t107 -160.5t160.5 -107t195.5 -40t195.5 40t160.5 107t107 160.5t40 195.5t-40 195.5t-107 160.5t-160.5 107t-195.5 40zM523 66q-46 -23 -104 -23h-5v0h-4q-13 0 -27.5 1.5t-40.5 9t-45 20.5
t-34 39t-15 62q0 29 11 52t29.5 37t38.5 23t44 13t39.5 5.5t29.5 1.5h2q-12 16 -17 34t-5 27l1 10h-10q-45 0 -78 21q-52 34 -52 115q0 30 9.5 55.5t23 41t32 27.5t34 17.5t32 9.5t23 4.5t9.5 0.5h161v-4q0 -6 -4.5 -10.5t-15.5 -7.5t-16 -4t-18 -3q-24 -3 -27 -4
q28 -16 37.5 -41t9.5 -68q0 -70 -47 -113q-26 -24 -26 -38t35 -45q21 -20 33 -32.5t25.5 -39.5t13.5 -56q0 -98 -82 -138v0zM770 357v-107h-66v107h-105v68h105v107h66v-107h105v-68h-105z" />
    <glyph glyph-name="weibo" unicode="&#xe60b;" 
d="M738 405l15 36q29 94 -54 109q-70 14 -214 -33q35 30 34 75.5t-31 67.5q-31 19 -71.5 18.5t-86.5 -23t-92 -56t-89 -79t-75.5 -92.5t-52 -96t-19.5 -89q0 -36 15 -73t48.5 -73t81 -63.5t117.5 -44t154 -16.5q103 0 188 21.5t137 54t87.5 73.5t49.5 77.5t14 68.5
q0 98 -105 128q-28 8 -51 9zM429 23q-83 -7 -156 14t-118.5 65t-50.5 101q-8 86 76 155t211 81q83 8 156 -13.5t118.5 -65.5t50.5 -100q8 -86 -76 -155.5t-211 -81.5v0zM369.5 356.5q-68.5 -11.5 -110 -61.5t-31.5 -109t65.5 -92.5t124 -21.5t110.5 61.5t32 108.5t-66 92.5
t-124.5 22zM354 132.5q-22 -6.5 -42 3.5t-25.5 30.5t6.5 39.5t34 25t41.5 -4t25 -30.5t-6 -39t-33.5 -25zM430.5 219q-11.5 0 -19.5 8.5t-8 19.5t8 19.5t19.5 8.5t19.5 -8.5t8 -19.5t-8 -19.5t-19.5 -8.5zM965 698q-46 58 -116.5 82.5t-158.5 12.5q-14 -2 -23 -14t-7 -26.5
t14 -23.5t27 -7q139 20 207 -68q31 -40 39 -91.5t-10 -95.5q-5 -14 0.5 -27.5t19.5 -19.5q7 -2 14 -2q24 0 33 22q25 62 14 133t-53 125zM725 663q-15 -2 -24 -14t-6.5 -26.5t14 -23.5t26.5 -7q50 8 74 -23q10 -13 13 -30.5t-3 -32.5q-6 -14 0 -27.5t20 -19.5q6 -2 13 -2
q24 0 33 22q14 33 8.5 69.5t-28.5 65.5q-49 62 -140 49z" />
    <glyph glyph-name="gainian" unicode="&#xe612;" 
d="M179 293l-166 -138l203 -116l274 143zM42 614l141 -312l309 -117l-125 281l-325 148v0zM503 837l-129 -365l119 -287l146 299zM948 587l-301 -108l-152 -295l291 109zM791 287l-295 -105l300 -130l209 101zM494 179l-104 -171l118 -77l97 72z" />
    <glyph glyph-name="qq" unicode="&#xe632;" 
d="M512 812q-104 0 -199 -40.5t-163.5 -109t-109 -163.5t-40.5 -199t40.5 -199t109 -163.5t163.5 -109t199 -40.5t199 40.5t163.5 109t109 163.5t40.5 199t-40.5 199t-109 163.5t-163.5 109t-199 40.5zM794 140q-10 -8 -25.5 0.5t-32.5 31.5q-14 -38 -36 -71q51 -18 51 -47
q0 -25 -39 -43t-94 -18q-66 0 -106 24q-39 -24 -106 -24q-55 0 -93.5 18t-38.5 43q0 29 50 47q-21 32 -36 71q-16 -23 -31.5 -31.5t-25.5 -0.5q-14 13 -9.5 52.5t24.5 81.5q9 20 20 35q3 124 74.5 211t171.5 87v0q101 0 172.5 -87t74.5 -211q10 -15 19 -35
q20 -42 24.5 -81.5t-8.5 -52.5z" />
    <glyph glyph-name="gaoxiao" unicode="&#xe60c;" 
d="M269 230v-254h91v272l-37 37zM168 -24h58v212l-58 -58v-154zM660 401v-425h192v618zM505 246v-270h112v375h-7zM433 174l-20 20l-10 11v-229h59v228l-9 -10zM867 648l91 -91l-34 200l-201 35l93 -93l-383 -383l-110 110l-259 -259l50 -51l209 209l59 -60v0l51 -51l51 51z
M867 648z" />
    <glyph glyph-name="tuichu" unicode="&#xe690;" 
d="M512 891q-103 0 -197 -40t-162 -108t-108 -162t-40 -197t40 -197t108 -162t162 -108t197 -40t197 40t162 108t108 162t40 197t-40 197t-108 162t-162 108t-197 40zM478 655q0 14 10 23.5t24 9.5t24 -9.5t10 -23.5v-203q0 -14 -10 -24t-24 -10t-24 10t-10 24v203zM512 80
q-112 0 -191.5 79t-79.5 191q0 84 47 152t123 99v-76q-47 -27 -74.5 -73.5t-27.5 -101.5q0 -84 59.5 -143.5t143.5 -59.5t143.5 59.5t59.5 143.5q0 55 -27.5 101.5t-74.5 73.5v76q76 -31 123 -99t47 -152q0 -112 -79.5 -191t-191.5 -79z" />
    <glyph glyph-name="shiyanshi" unicode="&#xe619;" 
d="M911 205l-260 371v141h3q21 0 36 15t15 36t-15 36t-36 15h-289q-21 0 -36 -15t-15 -36t15 -36t36 -15h5v-141l-272 -389q-4 -5 -6 -11q-18 -38 -18 -94q0 -26 9 -51q1 -6 3 -11l8 -16q9 -16 25 -26q12 -12 29 -12h7h8h8h680h9h8h3q12 0 23 7q22 10 35 31l8 16q2 5 3 11
q8 25 8 51q0 82 -37 123zM441 535q5 6 6 13q5 9 5 18v151h117v-151q0 -9 5 -18q2 -7 6 -13l276 -395l4 -4q7 -20 7 -29q0 -48 -32 -59h-648q-31 11 -31 59q0 8 8 31h-1l2 2zM776 93l-104 142q-22 -16 -50 -16q-39 0 -64 30q-5 11 -13 20v0.5v0.5h-1q-22 25 -55 25
q-29 0 -50 -19t-25 -47q-11 -24 -38 -24q-23 0 -36 20l-97 -132h533z" />
    <glyph glyph-name="down" unicode="&#xe623;" 
d="M82 670l430 -430l429 430l78 -78l-507 -508l-507 508z" />
    <glyph glyph-name="search" unicode="&#xe6d7;" 
d="M196 703q51 50 117 76.5t132.5 26.5t132.5 -26.5t117 -76.5q62 -62 87.5 -143.5t10 -165t-68.5 -151.5l56 -55q16 5 26 -5l131 -130q7 -7 6 -18t-9 -19l-52 -52q-9 -8 -20 -9t-19 6l-131 130q-10 10 -4 25l-58 57q-103 -73 -232.5 -63t-221.5 101q-51 50 -77 115t-26 131
t26 131t77 115zM269 282.5q73 -72.5 176.5 -72.5t176.5 72.5t73 174.5t-73 174.5t-176.5 72.5t-176.5 -72.5t-73 -174.5t73 -174.5zM596 606q7 -7 7 -16t-6.5 -15t-16 -6t-15.5 6v0q-50 49 -119.5 49t-119.5 -49q-6 -6 -15.5 -6t-16 6t-6.5 15t7 16q62 61 150.5 61
t150.5 -61z" />
    <glyph glyph-name="facebook" unicode="&#xe60e;" 
d="M1018 801v-834q0 -37 -26 -63t-63 -26h-834q-37 0 -63 26t-26 63v834q0 37 26 63t63 26h834q37 0 63 -26t26 -63zM829 639l20 120q-19 7 -55.5 10.5t-62.5 3.5l-27 1q-80 0 -124 -59q-26 -34 -26 -120v-79h-80v-117h80v-405h150v405h120l9 117h-129v91q0 42 60 42
q31 0 65 -10z" />
    <glyph glyph-name="radio-empty-y" unicode="&#xe62a;" horiz-adv-x="1114" 
d="M561 931q-111 0 -211.5 -43t-173.5 -116t-116 -173.5t-43 -211.5t43 -211.5t116 -173.5t173.5 -116t211 -43t211.5 43t173.5 116t115.5 173.5t43 211.5t-43 211.5t-115.5 173.5t-173.5 116t-211 43v0zM561 -46q-118 0 -218 58t-158 157.5t-58 217.5t58 217.5t158 157.5
t217.5 58t217.5 -58t158 -157.5t58 -217.5t-58 -217.5t-158 -157.5t-217 -58v0zM561 -46z" />
    <glyph glyph-name="user" unicode="&#xe609;" 
d="M896 3l0.5 0.5l0.5 0.5q0 11 -7 20q-28 84 -89 149t-143 97q63 38 100.5 103t37.5 141q0 118 -83 201.5t-201 83.5t-201 -83.5t-83 -201.5q0 -76 37.5 -141t100.5 -103q-82 -32 -143 -97t-89 -149q-7 -9 -7 -20l0.5 -0.5l0.5 -0.5l-1 -1h1q1 -25 25 -31v-1h5q3 -1 4 -1
t4 1h691q4 -1 5 -1t4 1h1v0q12 1 20.5 10.5t8.5 21.5h1l-1 1v0z" />
    <glyph glyph-name="left" unicode="&#xe626;" 
d="M838 682l-127 125l-525 -508l516 -506l120 122l-397 389z" />
    <glyph glyph-name="right" unicode="&#xe627;" 
d="M314 807l-126 -125l410 -378l-394 -389l119 -122l513 506z" />
    <glyph glyph-name="twitter" unicode="&#xe60f;" horiz-adv-x="1025" 
d="M1024 606q-58 -26 -121 -33q69 40 93 116q-63 -37 -134 -51q-62 66 -153 66q-87 0 -148.5 -61.5t-61.5 -148.5q0 -25 5 -48q-129 7 -241.5 65t-191.5 155q-28 -49 -28 -106q0 -54 25 -100t68 -75q-50 2 -95 26v-2q0 -76 48 -134t121 -72q-27 -8 -56 -8q-19 0 -39 4
q20 -63 74 -103.5t122 -42.5q-115 -90 -261 -90q-25 0 -50 3q147 -94 322 -94q112 0 210 35.5t168 95t120.5 136.5t75 161.5t24.5 169.5q0 13 -1 27q62 45 105 109v0z" />
    <glyph glyph-name="zixun" unicode="&#xe610;" 
d="M885 654h-671q-27 0 -51 -24t-24 -51v-484q0 -27 24 -50.5t51 -23.5h559l186 186v372q0 27 -24 51t-50 24zM773 356h74v37h-74v112h112v-37h-75v-38h75v-111h-112v37zM363 319h-37v74h-38v37h-37v-111h-37v186h37v-37h37v-38h38v75h37v-186zM512 468h-75v-38h75v-37h-75
v-37h75v-37h-112v186h112v-37zM698 319h-37v74h-37v-74h-37v74h-38v112h38v-112h37v112h37v-112h37v112h38v-112h-38v-74zM922 207l-149 -149q-2 -1 -4.5 -1t-9 0.5t-11.5 3.5t-9 12t-3 22v112q0 4 2 10t11.5 16.5t23.5 10.5h112l28 -8q27 -11 9 -29zM102 58v484h-3.5t-9 -2
t-11.5 -5.5t-9 -11t-4 -18.5v-484q0 -4 1 -9t6.5 -17.5t13 -22.5t21.5 -18t32 -8h597l10 2.5t16.5 11t10.5 23.5h-596v0q-4 1 -9 2t-17.5 6t-22.5 12.5t-18 22t-8 32.5z" />
    <glyph glyph-name="shijian" unicode="&#xe62b;" 
d="M512 894q-104 0 -198.5 -40.5t-162.5 -108.5t-108.5 -162.5t-40.5 -198.5t40.5 -198.5t108.5 -162.5t162.5 -108.5t198.5 -40.5t198.5 40.5t162.5 108.5t108.5 162.5t40.5 198.5t-40.5 198.5t-108.5 162.5t-162.5 108.5t-198.5 40.5v0zM686 190l-18 -18q-8 -7 -18.5 -7
t-18.5 7l-165 166q-5 5 -5 28v324q0 11 7.5 18.5t17.5 7.5h26q11 0 18.5 -7.5t7.5 -18.5v-316l148 -148q7 -7 7 -17.5t-7 -18.5v0zM686 190z" />
    <glyph glyph-name="anquan" unicode="&#xe611;" 
d="M957 726v-522q0 -47 -22 -93.5t-58 -90t-82.5 -82.5t-94.5 -70q-48 -30 -92.5 -50.5t-78.5 -27.5l-11 -2l-10 2q-34 7 -80 27.5t-95 50.5q-50 31 -97 70q-48 39 -85.5 82.5t-60.5 89.5q-23 47 -23 94v522l36 5l410 81l418 -81l26 -5v0zM513 736l-5 1l-351 -63v-329h356
v391v0zM867 345h-354v-468q34 8 74 25q41 17 80 40t75 52q36 28 64 61q28 32 45 67q16 35 16 72v151v0z" />
    <glyph glyph-name="xiaoxi" unicode="&#xe61f;" 
d="M606 802q0 38 -27.5 64.5t-66.5 26.5t-66.5 -26.5t-27.5 -64.5q0 -7 1 -15q-101 -33 -169 -126t-68 -209v-125v-6t-0.5 -16t-1.5 -24t-2.5 -28.5t-3.5 -30t-5.5 -28t-8 -24.5t-11 -16.5t-13.5 -6.5q-21 0 -35 -13.5t-14 -32t14 -32t34 -13.5h754q20 0 34 13.5t14 32
t-14 32t-34 13.5q-7 0 -13.5 6t-11 16t-8 24t-6 28t-4 30.5t-2.5 28t-1.5 24t-0.5 16.5v6v126q0 117 -66.5 209.5t-170.5 125.5q1 8 1 15zM654 11q-1 -56 -42 -96t-100 -40t-100 40t-42 96h284z" />
    <glyph glyph-name="zhiwei" unicode="&#xe628;" 
d="M397 889h255l-55 -231h-151l-49 224v7zM524 -117l-247 208l169 522h153l167 -528zM858 224h-70l-107 304l177 -235v-69z" />
    <glyph glyph-name="fanhui" unicode="&#xe63d;" 
d="M830 494q48 -29 95 -97.5t69 -151.5q14 -51 20 -106t6 -84v-30q-40 64 -56 87q-13 18 -33 40t-64.5 57t-91.5 57t-117 32t-117 9l-47 -1v-202l-485 344l485 343v-204q116 -9 177 -21q46 -10 85.5 -28t56.5 -31z" />
    <glyph glyph-name="double-angle-down" unicode="&#xe606;" 
d="M919 473l-409 -410l-411 408l30 30l381 -379l380 381zM890 705l-380 -381l-381 380l-30 -30l411 -409l409 411z" />
    <glyph glyph-name="double-angle-up" unicode="&#xe608;" 
d="M890 265l-380 381l-381 -379l-30 30l411 408l409 -410zM890 63l-380 381l-381 -380l-30 30l411 409l409 -411z" />
    <glyph glyph-name="remove" unicode="&#xe603;" 
d="M557 371l266 264q9 9 9 22t-9.5 22.5t-22.5 9.5t-23 -9l-265 -264l-263 264q-9 9 -22.5 9t-23 -9t-9.5 -22.5t10 -22.5l263 -264l-265 -264q-10 -9 -10 -22.5t9.5 -22.5t22.5 -9t23 9l265 264l265 -267q10 -9 23 -9t22.5 9.5t9.5 22.5t-9 23z" />
    <glyph glyph-name="minus" unicode="&#xe60d;" 
d="M589 448h-525v-128h895v128h-370z" />
    <glyph glyph-name="shenfenzheng" unicode="&#xe676;" 
d="M971 668h-918q-22 0 -37.5 -15.5t-15.5 -37.5v-630q0 -22 15.5 -37.5t37.5 -15.5h918q22 0 37.5 15.5t15.5 37.5v630q0 22 -15.5 37.5t-37.5 15.5zM479.5 99.5q-1.5 -9.5 -4.5 -14.5q-2 -3 -12.5 -6t-26.5 -6t-34.5 -5.5t-37.5 -4t-37 -2.5t-31 -1t-30.5 1t-36.5 3t-37 3
q-18 2 -33.5 4.5t-26 5t-13.5 4.5q-4 4 -6.5 22.5t1.5 48.5q3 17 14 25.5t26 14t30.5 9.5t28.5 12q9 6 14.5 11.5t7.5 11t2 11.5v13q-1 11 -7.5 17t-14.5 12q-3 3 -6 9t-5 12q-2 7 -5 15q-3 1 -6 3t-6 6.5t-5.5 12t-2 14t2.5 10.5q2 6 6 10q0 17 2 35q2 15 6.5 31.5
t14.5 30.5q8 12 19 20.5t22 13t22.5 6t21.5 1.5q27 0 48.5 -11.5t31.5 -24.5q12 -14 18 -32t8 -34q3 -18 2 -36q3 -2 5 -6q2 -3 3 -8t0 -13q-1 -9 -4 -15t-6 -10q-4 -3 -9 -4q-2 -8 -4 -15q-2 -6 -5.5 -12t-7.5 -8q-4 -4 -7.5 -6.5t-6 -5.5t-4.5 -7t-3 -9q-1 -7 -1 -14.5
t3.5 -14.5t10.5 -13t20 -11q12 -5 25.5 -8.5t26 -8.5t22.5 -12.5t14 -19.5q2 -7 3.5 -17.5t1.5 -22t-1.5 -21zM888 140h-288q-10 0 -17 7t-7 16.5t7 17t17 7.5h288q10 0 17 -7.5t7 -17t-7 -16.5t-17 -7zM888 283h-288q-10 0 -17 7t-7 17t7 17t17 7h288q10 0 17 -7t7 -17
t-7 -17t-17 -7zM888 428h-288q-10 0 -17 7t-7 17t7 17t17 7h288q10 0 17 -7t7 -17t-7 -17t-17 -7z" />
    <glyph glyph-name="qiehuan" unicode="&#xe62f;" 
d="M969 168h-646h-174h-149l447 -338l-52 208h574v130v0v0zM51 432h820h149l-460 337l52 -207h-562l1 -130v0v0zM51 432z" />
    <glyph glyph-name="pingtai" unicode="&#xe61d;" 
d="M872 694h-720q-31 0 -52.5 -22.5t-21.5 -54.5v-476q0 -31 24 -55t55 -24h316v-79h-198v-79h474v79h-198v79h79h237q31 0 55 24t24 55v476q0 32 -21.5 54.5t-52.5 22.5zM867 141l-214 3v0h-25h-12v0l-459 -3v474h710v-474zM512 -17zM452 400q-55 0 -94.5 -53t-39.5 -128
v-10h268v10q0 75 -39.5 128t-94.5 53v0zM453 418q28 0 48 19t20 46t-20 46t-48 19t-47.5 -19t-19.5 -46t19.5 -46t47.5 -19v0zM617 336q-10 0 -19 -3q27 -51 27 -114v-10h81v7q0 50 -26 85t-63 35v0zM662 392q0 18 -13 30.5t-31.5 12.5t-32 -12.5t-13.5 -30.5t13.5 -30.5
t32 -12.5t31.5 12.5t13 30.5v0zM662 392z" />
    <glyph glyph-name="xuexi" unicode="&#xe675;" 
d="M823 182v404q0 45 -31.5 77t-73.5 32h-403q-48 0 -81 -32t-33 -77v-404q0 -39 20 -84.5t49 -71.5l160 -139q34 -31 82 -31q45 0 78 28l161 143q45 38 65 106q2 5 2 9q5 22 5 40zM766 586v-395l-98 55v392h46q21 0 36.5 -15.5t15.5 -36.5zM416 638h194v-383l-98 -75
l-96 58v400zM311 638h48v-396l-101 -54v398q0 21 15.5 36.5t37.5 15.5zM714 71l-134 -112q-30 24 -69 24q-42 0 -74 -28l-128 113q-23 21 -39 61l115 61l112 -69q16 -10 32 1l101 77q3 -1 6 -1l119 -66q-17 -40 -41 -61z" />
    <glyph glyph-name="phone" unicode="&#xe74f;" 
d="M789 780h-554v-701h554v701zM570 836q0 5 -3.5 8.5t-8.5 3.5h-115q-5 0 -8.5 -3.5t-3.5 -8.5v-11q0 -5 3.5 -8t8.5 -3h115q5 0 8.5 3t3.5 8v11zM512 -57q19 0 32.5 13.5t13.5 32t-13.5 31.5t-32.5 13t-32.5 -13t-13.5 -32t13.5 -32t32.5 -13zM789 -125h-554q-29 0 -49 20
t-20 48v882q0 28 20 48t49 20h554q29 0 49 -20t20 -48v-882q0 -28 -20 -48t-49 -20z" />
    <glyph glyph-name="xingming" unicode="&#xe638;" horiz-adv-x="1115" 
d="M1105 -38q0 -32 -17 -57t-58 -25h-947q-41 0 -58 25t-17 57q0 45 19.5 93.5t54.5 91t91.5 69.5t122.5 27q2 -3 7 -9t25.5 -21.5t47 -27t75 -21.5t106 -10t105.5 9.5t75.5 22.5t47 26t25.5 22l7 9q66 0 122.5 -27t91.5 -69.5t54.5 -91t19.5 -93.5v0v0zM563 888
q-78 0 -144.5 -43t-105 -117t-38.5 -161.5t38.5 -161.5t105 -117t144.5 -43t144 43t105 117t39 161.5t-39 161.5t-105 117t-144 43v0v0z" />
    <glyph glyph-name="windows" unicode="&#xe640;" 
d="M1 413h420v411l-420 -49v-362v0zM481 831v-418h542v482zM1 -9l420 -49v411h-420v-362v0zM481 -65l542 -62v480h-542v-418v0z" />
    <glyph glyph-name="tuijian" unicode="&#xe613;" 
d="M677 896h165v-495h-165v495zM677 896h165v-495h-165v495zM182 896h165v-495h-165v495zM182 896h165v-495h-165v495zM925 357l-311 7l-56 160h-92l-56 -160l-311 -7l248 -187l-90 -298l255 178l255 -178l-90 298zM594 896h-164v-372h36l46 131l46 -131l36 1v371z" />
    <glyph glyph-name="dayin" unicode="&#xe644;" 
d="M915 142h-76v75h38v74h-727v-74h38v-75h-76q-16 0 -27 11t-11 27v372q0 19 47.5 35.5t146.5 28t227 11.5h38q127 0 225.5 -11t147 -28t48.5 -36v-372q0 -16 -11.5 -27t-27.5 -11zM820 515q-24 0 -41 -16.5t-17 -39.5t17 -39.5t41 -16.5t40.5 16.5t16.5 39.5t-16.5 39.5
t-40.5 16.5zM227 850q0 16 11 27t27 11h497q16 0 27.5 -11t11.5 -27v-186h-574v186zM801 -81q0 -15 -11.5 -26t-27.5 -11h-497q-16 0 -27 11t-11 26v335h574v-335zM724 217h-421v-37h421v37zM724 142h-421v-37h421v37zM724 68h-421v-37h421v37zM724 -7h-421v-37h421v37z" />
    <glyph glyph-name="duanxin1" unicode="&#xe6cc;" 
d="M512 894q-104 0 -198 -40.5t-162.5 -109t-109 -162.5t-40.5 -198t40.5 -198t109 -162.5t162.5 -109t198 -40.5t198 40.5t162.5 109t109 162.5t40.5 198t-40.5 198t-109 162.5t-162.5 109t-198 40.5zM809 172h-594v283l208 -144q38 -26 89 -26t89 26l208 144v-283v0z
M809 538l-246 -171q-21 -14 -51 -14q-31 0 -51 14l-246 171v58h594v-58z" />
    <glyph glyph-name="bianji" unicode="&#xe6bf;" 
d="M504 -49l-424 424l495 495q24 24 58 24t58 -24l309 -309q23 -23 23 -57t-23 -58zM429 -124l-428 -2l2 428z" />
    <glyph glyph-name="game" unicode="&#xe650;" 
d="M548 381h-76q-8 0 -13.5 -5t-5.5 -14t5.5 -14t13.5 -5h76q8 0 13.5 5t5.5 14q0 7 -5.5 13t-13.5 6v0zM293 553h-57v-67h-66v-57h66v-67h57v67h66v57h-66v67zM831 501q4 16 -3.5 29.5t-23.5 16.5q-15 4 -28.5 -3.5t-16.5 -23.5q-4 -16 3.5 -29.5t22.5 -15.5
q14 -5 27.5 3.5t18.5 22.5v0zM765 402q-16 4 -29.5 -3.5t-16.5 -23.5q-4 -16 3.5 -29.5t23.5 -15.5q16 -3 29 4t16 22q4 14 -4 28t-22 18v0zM857 455q-16 5 -29 -3t-16 -23q-4 -16 3.5 -29.5t22.5 -16.5q16 -4 29.5 3.5t15.5 23.5q5 14 -3.5 27.5t-22.5 17.5v0zM738 448
q5 16 -3 29.5t-23 16.5q-16 4 -29.5 -3.5t-15.5 -23.5q-3 -16 4 -29.5t22 -16.5q14 -4 27.5 3.5t17.5 23.5v0zM989 406q-37 140 -84 215t-129 98q-25 7 -51 7q-30 0 -92 -21q-70 -24 -123 -24t-123 24q-62 21 -90 21t-51 -7q-83 -23 -130.5 -99t-82.5 -214
q-38 -145 -28 -239.5t65 -119.5q16 -7 38.5 -7t45 9t46 28.5t37.5 34t38 40.5q6 7 9 10l13 15q28 33 84.5 51t130.5 18q81 0 132.5 -16.5t82.5 -52.5l13 -15q22 -27 38.5 -44t40.5 -37.5t48 -30.5t49 -10q22 0 37 7q54 23 64 118.5t-28 240.5v0zM936 78q-11 -6 -24 -6
q-55 0 -147 111l-14 15q-36 43 -94 62.5t-149 19.5q-82 0 -145.5 -21.5t-97.5 -60.5l-13 -15q-3 -3 -9 -10q-28 -31 -45 -48t-44.5 -35t-49.5 -18q-13 0 -24 6q-41 17 -46 104.5t29 211.5q34 130 75.5 199t113.5 88q22 5 41 5q26 0 79 -19q68 -26 136 -26q15 0 30 1
t24.5 2.5t24 5.5t19.5 5.5t20.5 6.5t17.5 5q53 19 79 19q22 0 42 -5q71 -19 112.5 -88t75.5 -199q34 -123 29 -210.5t-46 -105.5v0zM936 78z" />
    <glyph glyph-name="duanxin" unicode="&#xe62d;" 
d="M512.5 494q-13.5 0 -23 -9.5t-9.5 -23t9.5 -23t23 -9.5t23 9.5t9.5 23t-9.5 23t-23 9.5zM382.5 495q-13.5 0 -23 -9.5t-9.5 -23t9.5 -23t23 -9.5t23 9.5t9.5 23t-9.5 23t-23 9.5zM512 888q-137 0 -253 -67.5t-183.5 -183.5t-67.5 -253t67.5 -253t183.5 -183.5t253 -67.5
t253 67.5t183.5 183.5t67.5 253t-67.5 253t-183.5 183.5t-253 67.5zM774 304q0 -21 -14 -35t-35 -14h-221l-124 -113v113h-81q-21 0 -35 14t-14 35v273q0 20 14 34.5t35 14.5h426q21 0 35 -14.5t14 -34.5v-273zM641.5 494q-13.5 0 -23 -9.5t-9.5 -23t9.5 -23.5t23 -10t23 10
t9.5 23.5t-9.5 23t-23 9.5z" />
    <glyph glyph-name="yulan" unicode="&#xe621;" 
d="M512 691q-62 0 -123.5 -17t-110 -43.5t-93 -59.5t-77 -65t-56 -59.5t-35.5 -43.5t-12 -17q4 -6 12 -17t35 -42.5t56.5 -60.5t76 -64t94 -60t109.5 -42.5t124 -17.5t123.5 17t110.5 43.5t93.5 59.5t76.5 65t56 59t35.5 43.5l11.5 16.5q-4 7 -12 18t-35 42.5t-56.5 60
t-76 64t-94 60.5t-109.5 42.5t-124 17.5v0zM512 186q-83 0 -142.5 59t-59.5 142.5t59.5 143t143 59.5t142.5 -59.5t59 -143t-59 -142.5t-143 -59v0zM411 387q0 -42 29.5 -71.5t71.5 -29.5t71.5 29.5t29.5 71.5t-29.5 71.5t-71.5 29.5t-72 -30q-29 -29 -29 -71v0z" />
    <glyph glyph-name="gaizao" unicode="&#xe620;" horiz-adv-x="1043" 
d="M1016 48l-495 483q28 74 12 152t-73 135q-78 78 -189 78q-46 0 -89 -15l-12 -4l132 -132l-22 -107l-129 -44l-132 132l-4 -12q-25 -74 -8 -148.5t72 -129.5q78 -78 189 -78q55 0 105 21l493 -481q27 -26 64 -26q38 0 64 27l23 22q26 26 26 63.5t-27 63.5v0zM991 -54
l-22 -22q-16 -16 -39 -16t-39 15l-510 498l-22 -9q-43 -19 -91 -19q-96 0 -164 68q-39 39 -56 90.5t-10 105.5l103 -104l170 58l30 146l-102 101q16 2 32 2q96 0 164 -68q49 -48 63 -116t-11 -132l-8 -22l512 -500q16 -15 16 -37.5t-16 -38.5v0zM991 -54z" />
    <glyph glyph-name="yunying" unicode="&#xe61a;" 
d="M358 664q0 71 -52.5 121t-126 50t-126 -50t-52.5 -121q0 -69 50 -119q-13 -51 -13 -104q0 -120 60.5 -222t162.5 -164l36 141q-56 45 -87.5 108.5t-31.5 136.5q0 26 4 52q73 1 124.5 51t51.5 120v0v0v0v0zM510 759q91 0 169 -44q-12 -29 -12 -62q0 -70 52 -120.5
t126 -50.5t126 50.5t52 121t-52 120.5t-126 50q-34 0 -65 -11q-121 81 -270 81q-99 0 -190 -39l81 -113q53 17 109 17v0v0v0v0zM842 426q-4 -86 -51.5 -157t-124.5 -111q-23 43 -65.5 68.5t-93.5 25.5q-74 0 -126 -50t-52 -121t52 -121t126 -50q55 0 99.5 29t64.5 75
q138 48 225 164.5t87 262.5q0 14 -2 29l-139 -44v0v0v0v0zM358 664q0 71 -52.5 121t-126 50t-126 -50t-52.5 -121q0 -69 50 -119q-13 -51 -13 -104q0 -120 60.5 -222t162.5 -164l36 141q-56 45 -87.5 108.5t-31.5 136.5q0 26 4 52q73 1 124.5 51t51.5 120v0v0v0v0zM510 759
q91 0 169 -44q-12 -29 -12 -62q0 -70 52 -120.5t126 -50.5t126 50.5t52 121t-52 120.5t-126 50q-34 0 -65 -11q-121 81 -270 81q-99 0 -190 -39l81 -113q53 17 109 17v0v0v0v0zM842 426q-4 -86 -51.5 -157t-124.5 -111q-23 43 -65.5 68.5t-93.5 25.5q-74 0 -126 -50
t-52 -121t52 -121t126 -50q55 0 99.5 29t64.5 75q138 48 225 164.5t87 262.5q0 14 -2 29l-139 -44v0v0v0v0zM358 664q0 71 -52.5 121t-126 50t-126 -50t-52.5 -121q0 -69 50 -119q-13 -51 -13 -104q0 -120 60.5 -222t162.5 -164l36 141q-56 45 -87.5 108.5t-31.5 136.5
q0 26 4 52q73 1 124.5 51t51.5 120v0v0v0v0zM510 759q91 0 169 -44q-12 -29 -12 -62q0 -70 52 -120.5t126 -50.5t126 50.5t52 121t-52 120.5t-126 50q-34 0 -65 -11q-121 81 -270 81q-99 0 -190 -39l81 -113q53 17 109 17v0v0v0v0zM842 426q-4 -86 -51.5 -157t-124.5 -111
q-23 43 -65.5 68.5t-93.5 25.5q-74 0 -126 -50t-52 -121t52 -121t126 -50q55 0 99.5 29t64.5 75q138 48 225 164.5t87 262.5q0 14 -2 29l-139 -44v0v0v0v0z" />
    <glyph glyph-name="daochu" unicode="&#xe697;" 
d="M703 891h-486v-874h729v641h-243v233zM885 367v-58l-243 -175v116h-243v175h243v117zM764 891v-175h182zM161 768h-87v-885h702v86h-615v799z" />
    <glyph glyph-name="quanmian" unicode="&#xe614;" horiz-adv-x="1067" 
d="M739 285v26h328v193h-1066l-1 -193h328v-26h-327v-192h327v-28h-327v-193h1066v193h-328v28h328v192h-328zM724 536l154 360h-738l-139 -360h723zM1050 536l-142 360l-149 -360h291z" />
    <glyph glyph-name="in" unicode="&#xe615;" 
d="M946 895q30 0 53.5 -20.5t23.5 -51.5v-875q0 -31 -23.5 -51.5t-53.5 -20.5h-870q-31 0 -53 20.5t-22 51.5v875q0 31 22 51q22 21 53 21h870zM228 579q36 0 62.5 26.5t26.5 62.5t-27 62q-26 27 -62 27t-62.5 -26.5t-26.5 -62.5q0 -39 25 -64t64 -25zM303 25v488h-150v-488
h150v0zM871 25v269q0 111 -37.5 170.5t-143 59.5t-143.5 -78h-3v67h-144v-488h149v241q0 125 92 125q36 0 54 -24q18 -23 20 -44q3 -21 3 -60v-238h153v0z" />
    <glyph glyph-name="radio-empty" unicode="&#xe600;" 
d="M512 -64v0v0q-91 0 -174 36q-81 34 -143 95q-62 62 -95 143q-36 83 -36 174t36 174q34 81 95 143q62 62 143 95q83 36 174 36t174 -36q81 -34 143 -95q62 -62 95 -143q36 -83 36 -174t-36 -174q-33 -81 -95.5 -143t-142.5 -95q-83 -36 -174 -36zM512 793q-83 0 -159 -32
q-73 -31 -130 -88t-88 -130q-32 -76 -32 -159t32 -159q31 -73 87.5 -130t130.5 -88q76 -32 159 -32v0q83 0 159 32q73 31 130 88q56 56 88 130q32 76 32 159t-32 159q-31 74 -87.5 130.5t-130.5 87.5q-76 32 -159 32z" />
    <glyph glyph-name="thin-left" unicode="&#xe657;" 
d="M256 362l472 -465q8 -7 18.5 -7t18 7t7.5 17.5t-7 18.5l-472 465q-8 7 -18.5 7t-18 -7.5t-7.5 -18t7 -17.5zM248.5 372.5q7.5 -7.5 18 -7.5t17.5 7l464 462q8 7 7.5 17.5t-8 18t-18 7.5t-17.5 -8l-464 -461q-8 -8 -7.5 -18t8 -17.5z" />
    <glyph glyph-name="danwei" unicode="&#xe701;" 
d="M1003 -35h-49v616q0 27 -23 41l-253 147q-23 14 -46.5 0.5t-23.5 -40.5v-764h-53v885q0 25 -21 38.5t-44 4.5l-394 -170q-28 -12 -28 -43v-715h-50q-7 0 -11.5 -5t-4.5 -12v-53q0 -7 4.5 -12t11.5 -5h985q7 0 12 5t5 12v53q0 7 -5 12t-12 5v0v0zM737 602q0 7 4.5 12
t11.5 5h53q7 0 11.5 -5t4.5 -12v-52q0 -7 -4.5 -12t-11.5 -5h-53q-7 0 -11.5 5t-4.5 12v52zM737 470q0 7 4.5 12t11.5 5h53q7 0 11.5 -5t4.5 -12v-52q0 -7 -4.5 -12t-11.5 -5h-53q-7 0 -11.5 5t-4.5 12v52zM737 338q0 7 4.5 12t11.5 5h53q7 0 11.5 -5t4.5 -12v-52
q0 -7 -4.5 -12t-11.5 -5h-53q-7 0 -11.5 5t-4.5 12v52zM737 206q0 7 4.5 12t11.5 5h53q7 0 11.5 -5t4.5 -12v-52q0 -7 -4.5 -12t-11.5 -5h-53q-7 0 -11.5 5t-4.5 12v52zM737 74q0 7 4.5 12t11.5 5h53q7 0 11.5 -5t4.5 -12v-52q0 -7 -4.5 -12t-11.5 -5h-53q-7 0 -11.5 5
t-4.5 12v52zM348 734q0 7 4.5 12t11.5 5h52q7 0 12 -5t5 -12v-52q0 -7 -5 -12t-12 -5h-52q-7 0 -11.5 5t-4.5 12v52zM348 602q0 7 4.5 12t11.5 5h52q7 0 12 -5t5 -12v-52q0 -7 -5 -12t-12 -5h-52q-7 0 -11.5 5t-4.5 12v52zM348 470q0 7 4.5 12t11.5 5h52q7 0 12 -5t5 -12
v-52q0 -7 -5 -12t-12 -5h-52q-7 0 -11.5 5t-4.5 12v52zM348 338q0 7 4.5 12t11.5 5h52q7 0 12 -5t5 -12v-52q0 -7 -5 -12t-12 -5h-52q-7 0 -11.5 5t-4.5 12v52zM348 206q0 7 4.5 12t11.5 5h52q7 0 12 -5t5 -12v-52q0 -7 -5 -12t-12 -5h-52q-7 0 -11.5 5t-4.5 12v52zM348 74
q0 7 4.5 12t11.5 5h52q7 0 12 -5t5 -12v-52q0 -7 -5 -12t-12 -5h-52q-7 0 -11.5 5t-4.5 12v52zM189 602q0 7 4.5 12t11.5 5h53q7 0 11.5 -5t4.5 -12v-52q0 -7 -4.5 -12t-11.5 -5h-53q-7 0 -11.5 5t-4.5 12v52zM189 470q0 7 4.5 12t11.5 5h53q7 0 11.5 -5t4.5 -12v-52
q0 -7 -4.5 -12t-11.5 -5h-53q-7 0 -11.5 5t-4.5 12v52zM189 338q0 7 4.5 12t11.5 5h53q7 0 11.5 -5t4.5 -12v-52q0 -7 -4.5 -12t-11.5 -5h-53q-7 0 -11.5 5t-4.5 12v52zM189 206q0 7 4.5 12t11.5 5h53q7 0 11.5 -5t4.5 -12v-52q0 -7 -4.5 -12t-11.5 -5h-53q-7 0 -11.5 5
t-4.5 12v52zM189 74q0 7 4.5 12t11.5 5h53q7 0 11.5 -5t4.5 -12v-52q0 -7 -4.5 -12t-11.5 -5h-53q-7 0 -11.5 5t-4.5 12v52zM189 74z" />
    <glyph glyph-name="dianzan" unicode="&#xe616;" 
d="M217 487h-163q-16 0 -24.5 -8.5t-9.5 -17.5l-1 -8l35 -547q0 -15 9.5 -23.5t15 -9.5t9.5 -1h142q14 0 21.5 5.5t7.5 10.5l1 6v550q-2 19 -12.5 30t-20.5 12l-10 1v0zM940 487h-271q21 79 28.5 144.5t2.5 106.5t-16.5 72.5t-26.5 47t-28.5 25t-23.5 11.5l-9 2
q-27 0 -42 -10t-18 -21t-3.5 -24t-1.5 -14q0 -53 -20.5 -107.5t-50.5 -94.5t-59.5 -72t-50.5 -49l-21 -17v-542q0 -24 20.5 -41.5t43 -24.5t39.5 -7h405q17 0 34 25.5t26 48t9 25.5q44 153 68.5 265t27.5 147l3 36q1 20 -5.5 34.5t-16 21t-19.5 9.5t-17 3h-7v0zM940 487z
" />
    <glyph glyph-name="anli" unicode="&#xe617;" 
d="M128 846q-20 -12 -31 -28q-13 -19 -13 -41v-815q0 -29 75.5 -48t183.5 -25.5t216 -8t184 0l76 1.5v111l120 5v889l-726 -19q-49 -1 -85 -22v0zM572 293l-251 19l6 71l251 -19zM683 463l-434 33l6 71l434 -33zM873 58l-54 -2v649l-606 46q-30 0 -50 12q-8 4 -11 9
q-2 3 -2 5q0 3 2 6q5 8 20 14q18 7 41 7h1l659 18v-764v0v0v0z" />
    <glyph glyph-name="pingtai1" unicode="&#xe61b;" 
d="M470 -104q-91 0 -173.5 35.5t-142 95t-95 142t-35.5 173.5q0 117 56 217.5t153 161t213 66.5v-469h469q-6 -116 -67 -213t-161 -153t-217 -56v0zM422 761v-467h467q-12 -104 -70 -189.5t-150.5 -135t-198.5 -49.5q-114 0 -211.5 56.5t-154 154t-56.5 211.5
q0 106 49.5 198.5t135 151t189.5 69.5v0zM470 812q-96 0 -183 -37t-150 -100t-100 -150t-37 -183t37 -183t100 -150t150 -100t183 -37t183 37t150 100t100 150t37 183h-470v470zM886 758q-65 65 -150.5 101.5t-181.5 36.5v-470h470v0q0 96 -36.5 181.5t-101.5 150.5v0z" />
    <glyph glyph-name="artboard23" unicode="&#xe7cf;" 
d="M512 896q-140 0 -258 -68t-186 -186t-68 -258t68 -258t186 -186t258 -68t258 68t186 186t68 258t-68 258t-186 186t-258 68v0zM512 18q-32 0 -52.5 22.5t-20.5 50.5q0 32 22 53t51 21q27 0 50 -23t23 -51q0 -32 -20 -52.5t-53 -20.5v0zM541 267q-3 -13 -9.5 -20t-10 -8
t-9.5 -1t-9.5 1t-10 8t-9.5 20q-7 46 -40 172.5t-33 149.5q0 44 29 73t73 29t73 -29t29 -73q0 -13 -5 -40.5t-14.5 -68t-17.5 -73.5t-20 -79t-16 -61v0z" />
    <glyph glyph-name="radio-y" unicode="&#xe680;" 
d="M512 893q-104 0 -198 -40t-162.5 -108.5t-108.5 -162.5t-40 -198t40 -198t108.5 -162.5t162.5 -108.5t198 -40t198 40t162.5 108.5t108.5 162.5t40 198t-40 198t-108.5 162.5t-162.5 108.5t-198 40zM512 -44q-116 0 -214.5 57.5t-156 156t-57.5 214.5t57.5 214.5t156 156
t214.5 57.5t214.5 -57.5t156 -156t57.5 -214.5t-57.5 -214.5t-156 -156t-214.5 -57.5zM200 384q0 -129 91.5 -220.5t220.5 -91.5t220.5 91.5t91.5 220.5t-91.5 220.5t-220.5 91.5t-220.5 -91.5t-91.5 -220.5z" />
    <glyph glyph-name="shezhi" unicode="&#xe85e;" 
d="M552 481q-40 17 -80.5 0.5t-56.5 -56.5q-17 -40 -1 -80.5t57 -57.5q40 -16 80.5 0.5t57.5 56.5t0.5 80t-57.5 57zM511.5 893q-103.5 0 -197.5 -40.5t-162 -108.5t-108.5 -162t-40.5 -197.5t40.5 -197.5t108.5 -162t162 -108t197.5 -40t197.5 40t162 108t108 162t40 197.5
t-40 197.5t-108 162t-162 108.5t-197.5 40.5zM729 351l77 -47l-30 -70l-89 21q-19 -27 -45 -46l20 -88l-70 -29l-49 77q-31 -5 -64 0l-50 -76l-70 29l21 87q-27 20 -46 46l-88 -19l-29 69l76 48q-4 32 0 65l-75 48l29 70l88 -21q21 28 47 46l-20 88l70 28l48 -77q32 5 65 0
l48 76l70 -29l-20 -88q29 -21 46 -46l88 21l29 -69l-77 -49q4 -32 0 -65v0z" />
    <glyph glyph-name="shiyan" unicode="&#xe61c;" 
d="M754 263q-37 -22 -58 -61l-149 29q-1 69 -37 129q-38 64 -106 96l68 192q29 1 55 16q41 25 52.5 71t-13.5 87t-71 52.5t-87 -13.5q-45 -27 -54 -78l-144 -9q-10 21 -29 34q-29 22 -66 16t-58.5 -36t-15.5 -66.5t35.5 -58t66.5 -15.5t58 35q15 21 17 46l137 8
q4 -18 14 -34q16 -27 45 -42l-65 -185q-99 21 -185 -30q-89 -54 -114 -155.5t28.5 -191t155 -114.5t191.5 28q87 53 113 152l140 -27q-4 -50 22 -93q34 -57 98 -72.5t120.5 18.5t72 98t-18.5 120t-97.5 72t-120.5 -18z" />
    <glyph glyph-name="jiangbei" unicode="&#xe622;" 
d="M614 251q-4 16 -22 16h-48v42q-19 -3 -37.5 -3t-37.5 3v-42h-49q-17 0 -22 -16l-17 -62q-3 -11 4 -20t18 -9h206h1q9 0 15.5 6.5t6.5 16.5q0 4 -1 8l-17 60v0zM738 672q-9 2 -19 2h-9v61q0 9 -6 15t-15 6h-365q-9 0 -15.5 -6t-6.5 -15v-61h-9q-9 0 -19 -2
q-37 -10 -54.5 -51.5t-4.5 -90.5q11 -42 40 -68.5t63 -26.5h6q3 -5 5 -10l1 -2q4 -8 9 -15l1 -1q5 -8 10 -14v-1q11 -14 24 -26v0h1q6 -6 13 -11v-0.5v-0.5q29 -22 63 -32v0q9 -3 17 -5h1v0q9 -2 18 -3v0q10 -1 19 -1t19 1v0q9 1 19 3v0v0q9 2 17 5v0q34 10 63 32l0.5 0.5
l0.5 0.5q6 5 13 11v0q13 12 24 26l1 1q5 6 9 14q1 0 1 0.5v0.5q5 8 9 15l0.5 0.5t0.5 1.5q3 5 5 10h7q33 0 62 26.5t41 68.5q13 49 -4.5 90.5t-55.5 51.5v0zM250 540q-9 33 1 61.5t33 34.5q4 2 9 2q4 0 9 -1v-102q0 -9 1 -19v-2q1 -8 2 -17l1 -3q1 -9 3 -17l1 -2.5l1 -2.5
q-20 3 -37 22t-24 46v0zM618 581l-61 -45l22 -73q2 -4 -2 -7q-2 -1 -4.5 -1t-3.5 1l-63 43l-62 -43q-4 -3 -8 0t-3 7l22 73l-60 45q-4 3 -2.5 8t6.5 5l76 1l25 72q1 4 6 4t7 -4l25 -72l76 -1q5 0 6.5 -5t-2.5 -8v0zM762 540q-7 -27 -24 -46t-36 -22q0 1 0.5 2.5t0.5 2.5
q2 8 4 17v3q1 9 2 17v2q1 10 1 19v102q5 1 9 1q5 0 10 -2q22 -6 32 -34.5t1 -61.5v0zM762 540z" />
    <glyph glyph-name="youjian" unicode="&#xe74e;" 
d="M406 380l-153 153v-305v-1zM747 557h-469l234 -235zM512 273l-82 83l-145 -145h456l-146 145zM512.5 892q-103.5 0 -197.5 -40t-162 -108t-108.5 -162.5t-40.5 -197.5t40.5 -197.5t108.5 -162.5t162 -108t197.5 -40t197.5 40t162 108t108 162.5t40 197.5t-40 197.5
t-108 162.5t-162 108t-197.5 40zM807 228q0 -21 -15.5 -36.5t-36.5 -15.5h-485q-21 0 -36.5 15.5t-15.5 36.5v312q0 21 15.5 36.5t36.5 15.5h485q21 0 36.5 -15.5t15.5 -36.5v-312zM620 380l152 -152v305l-153 -153h1z" />
    <glyph glyph-name="kaiguananniu" unicode="&#xe605;" 
d="M731 612h-439q-94 0 -161 -67t-67 -161v0q0 -94 67 -161t161 -67h439q94 0 161 67t67 161v0q0 94 -67 161t-161 67zM735 176q-86 0 -147 61t-61 147t61 147t147 61t147 -61t61 -147t-61 -147t-147 -61z" />
    <glyph glyph-name="users" unicode="&#xe60a;" 
d="M523 298q54 34 85.5 91t31.5 123q0 106 -75 181t-181 75t-181 -75t-75 -181q0 -66 31.5 -123t85.5 -91q-111 -37 -178 -124t-67 -206q0 -13 9.5 -22.5t22.5 -9.5h704q13 0 22.5 9.5t9.5 22.5q0 119 -67 206t-178 124zM804 294q57 35 90.5 92.5t33.5 125.5q0 106 -75 181
t-181 75q-13 0 -22.5 -9.5t-9.5 -22.5t9.5 -22.5t22.5 -9.5q79 0 135.5 -56.5t56.5 -135.5q0 -52 -26 -96t-70 -70q-29 -17 -41.5 -37t-2.5 -40t44 -32q85 -31 138.5 -104t53.5 -166q0 -13 9.5 -22.5t22.5 -9.5t22.5 9.5t9.5 22.5q0 110 -61 198.5t-159 128.5z" />
    <glyph glyph-name="kaiguananniuguan" unicode="&#xe607;" 
d="M61 384q0 -93 66 -159t160 -66h450q94 0 160 66t66 159t-66 159t-160 66h-450q-94 0 -160 -66t-66 -159zM81 384q0 85 60.5 145t145.5 60t145 -60t60 -145t-60 -145t-145 -60t-145.5 60t-60.5 145z" />
    <glyph glyph-name="weizhi" unicode="&#xe629;" 
d="M510 -124q-8 9 -22 25t-53.5 64t-75.5 95.5t-80 112t-75.5 121t-53 115.5t-21.5 102q0 103 51 191t138.5 139t191 51t191.5 -51t139 -139t51 -191q0 -157 -264 -494q-65 -83 -117 -141zM509.5 765q-105.5 0 -179.5 -74.5t-74 -179.5t74 -179.5t179.5 -74.5t180 74.5
t74.5 179.5t-74.5 179.5t-180 74.5z" />
    <glyph glyph-name="checkbox" unicode="&#xe604;" 
d="M967 -128h-910q-26 0 -41.5 15.5t-15.5 41.5v910q0 26 15.5 41.5t41.5 15.5h910q26 0 41.5 -15.5t15.5 -41.5v-910q0 -26 -15.5 -41.5t-41.5 -15.5zM819 589l-375 -364l-171 205q-18 7 -35.5 1.5t-27.5 -19.5q-8 -17 -1 -34.5t24 -21.5l188 -217q17 -5 40 0q2 0 10 7.5
t20 19.5t21 19q20 18 84 83t118 121.5t54 57.5q91 91 102 113q3 3 -5 10t-21.5 13t-24.5 6z" />
    <glyph glyph-name="plus" unicode="&#xe601;" 
d="M1024 441h-455v455h-114v-455h-455v-114h455v-455h114v455h455v114z" />
    <glyph glyph-name="huiyi" unicode="&#xe630;" horiz-adv-x="1456" 
d="M1041 874q-11 0 -45 -12q-48 -18 -85 -69q-11 -12 -17 -24q-6 -7 -6 -13q32 -17 63 -61q5 -10 13.5 -25.5t14.5 -24.5l6 -6q18 -72 11 -143q-9 -69 -34 -123q0 -6 -6 -13l12 -18q0 -71 -68 -118q8 -72 107 -117q76 -31 114 -81q3 -5 11 -12h272q0 25 -11 50q0 12 -11 37
q-45 67 -131 105q-22 12 -28 12q-44 24 -64.5 53.5t-20.5 70.5l57 105q0 12 11 25q6 11 11 25t8 25t7.5 30.5t7.5 30.5v12q8 84 -17 149v6q-3 3 -4 6t-2 5v1q-17 19 -22 31q-31 45 -63 62q-2 3 -5 4.5t-5 1.5l-1 1q-34 12 -57 12q-8 9 -17 0q0 4 -0.5 4.5t-5.5 -4.5v0v0z
M741 750q-4 5 -7.5 5t-3.5 -5q-6 6 -6 0q-4 5 -5 5t-1 -5h-11q-37 -10 -57 -25q-38 -21 -62 -55q-5 -6 -9 -13t-9 -18.5t-5 -12.5q-14 -22 -23 -61q-8 -47 0 -93q2 -8 4.5 -23.5t5 -26t7.5 -18.5v-6q12 -38 17 -50q0 -3 1.5 -6t3.5 -5l1 -1q6 -7 6 -13l57 -99v-6v-25
q-18 -76 -114 -111q-3 -3 -8.5 -6t-8.5 -6q-65 -27 -102 -87q-14 -15 -23 -43q-12 -27 -5 -50v-6h692v12q0 31 -6 44q-3 11 -12 25.5t-11 17.5q-29 55 -119 99q-43 19 -68 37q-35 31 -45 74v25l56 105q0 3 1.5 6t3.5 5l1 2q0 6 6 12q11 37 22 56v18q12 25 12 50
q7 64 -12 136q-2 3 -3.5 6t-1.5 4v2q-3 8 -7 15.5t-11 18l-11 16.5q0 4 -3.5 8t-7.5 4q-34 37 -51 43v6q-34 19 -68 19v0zM508 694q31 45 63 62q-12 25 -23 37v7q-33 36 -64 55t-66 19q-9 9 -17 0q0 5 -3 5t-3 -5q-6 6 -6 0q-40 0 -72 -20.5t-64 -60.5q0 -3 -3 -6t-3 -6
q-11 -13 -22 -37q-17 -46 -17 -105v-44q5 -18 5 -43q6 -31 29 -80q11 -12 17 -25l56 -105q0 -18 -11 -56q-17 -28 -51 -55l-25 -12.5t-32 -12.5q-95 -38 -130 -105q-17 -19 -17 -37q-6 0 -6 -13q0 -4 -1 -11.5t-1 -13.5t2 -12h278q30 49 108 87q2 0 9 3t14 3q97 48 113 117
q-71 43 -79 118l17 18q-2 3 -4 6.5t-3.5 5t-4.5 1.5q-25 54 -34 124v86q9 38 23 68q11 25 28 43v0z" />
    <glyph glyph-name="thin-right" unicode="&#xe631;" 
d="M768 406l-472 465q-8 7 -18.5 7t-18 -7t-7.5 -17.5t7 -18.5l472 -465q8 -7 18.5 -7t18 7.5t7.5 18t-7 17.5zM775.5 395.5q-7.5 7.5 -18 7.5t-17.5 -7l-464 -462q-8 -7 -7.5 -17.5t8 -18t18 -7t17.5 7.5l464 461q8 8 7.5 18t-8 17.5z" />
    <glyph glyph-name="mac" unicode="&#xe624;" 
d="M921 150q-27 -81 -69 -144q-21 -29 -33.5 -45.5t-33 -37.5t-42 -30.5t-45.5 -9.5q-33 -1 -80 19.5t-86 20.5q-41 0 -88.5 -20t-76.5 -21q-23 -1 -45.5 9t-43.5 31.5t-35 39.5t-34 47q-34 48 -59 110.5t-38.5 131t-6 139t39.5 125.5q33 57 88.5 91t119.5 35
q36 1 92.5 -21.5t72.5 -22.5q15 0 48 13.5t72 25t73 8.5q16 -1 35 -5t46 -13t54.5 -30.5t48.5 -51.5q-110 -74 -109 -191q0 -43 15 -79.5t32.5 -57.5t40.5 -38t32.5 -21.5t14.5 -6.5zM660 725q27 34 42 76.5t10 84.5q-38 -1 -79.5 -22.5t-68.5 -53.5q-27 -31 -43 -73
t-10 -83q40 -2 80.5 18.5t68.5 52.5z" />
    <glyph glyph-name="menu" unicode="&#xe61e;" 
d="M61 701q-18 0 -31.5 13.5t-13.5 32t13.5 32t31.5 13.5h877q19 0 32 -13.5t13 -32t-13 -32t-32 -13.5h-877zM318 460h-257q-18 0 -31.5 13t-13.5 32t13.5 32t31.5 13h696q18 0 31.5 -13t13.5 -32t-13.5 -32t-31.5 -13h-91v0h-348zM938 308q19 0 32 -13t13 -32t-13 -32
t-32 -13h-877q-18 0 -31.5 13t-13.5 32t13.5 32t31.5 13h877zM666 67q19 0 32 -13.5t13 -32t-13 -32t-32 -13.5h-605q-18 0 -31.5 13.5t-13.5 32t13.5 32t31.5 13.5h605z" />
    <glyph glyph-name="lingxing" unicode="&#xe625;" 
d="M516 892l506 -506l-506 -506l-506 506z" />
    <glyph glyph-name="iconyouxiang" unicode="&#xe62c;" 
d="M105 780h814q42 0 71.5 -29t30.5 -69l-509 -276l-508 276q0 40 29.5 69t71.5 29v0zM4 576l-1 -489q0 -41 30 -70t72 -29h814q42 0 72 29t30 70v489l-497 -263q-12 -7 -24 0l-496 263v0z" />
  </font>
</defs>
</svg>
